<svg width="727" height="547" viewBox="0 0 727 547" fill="none" xmlns="http://www.w3.org/2000/svg">
<g clip-path="url(#clip0_13_225)">
<path d="M453.091 546.709C460.248 530.606 467.399 514.264 470.505 496.817C473.611 479.369 472.308 460.434 463.412 445.3C454.517 430.167 437.002 419.905 420.287 423.326C406.558 426.136 395.535 437.399 389.08 450.33C382.626 463.261 380.036 477.846 377.526 492.184C376.714 475.895 375.855 459.344 370.661 443.956C365.466 428.569 355.238 414.23 340.661 408.275C326.084 402.321 307.121 407.004 299.438 421.216C288.614 441.239 302.966 469.325 290.52 488.297C288.385 469.266 269.281 454.23 251.124 457.291C232.967 460.351 219.389 480.896 223.124 499.657C225.347 510.82 232.659 520.316 241.4 527.176C250.142 534.036 260.308 541.986 270.366 546.483L453.091 546.709Z" fill="#F2F2F2"/>
<path d="M232.658 470.737C247.08 475.988 261.636 481.299 274.803 489.51C286.604 496.868 297.113 506.776 303.749 519.463C307.386 526.27 309.545 533.825 310.074 541.595C310.17 543.22 312.611 543.231 312.514 541.595C311.661 527.125 304.892 513.883 295.518 503.411C285.241 491.929 271.923 484.087 258.173 478.003C250.02 474.395 241.664 471.329 233.306 468.286C231.821 467.745 231.182 470.199 232.658 470.737V470.737Z" fill="white"/>
<path d="M315.849 410.798C324.71 426.177 331.806 442.586 336.991 459.69C342.186 476.787 345.459 494.455 346.743 512.339C347.453 522.35 347.531 532.399 346.975 542.42C346.884 544.054 349.325 544.049 349.415 542.42C350.399 524.352 349.349 506.225 346.287 488.411C343.229 470.598 338.204 453.214 331.311 436.605C327.442 427.276 322.981 418.226 317.956 409.515C317.787 409.237 317.521 409.037 317.213 408.959C316.906 408.881 316.581 408.93 316.308 409.096C316.034 409.263 315.834 409.533 315.748 409.851C315.663 410.168 315.699 410.508 315.849 410.798V410.798Z" fill="white"/>
<path d="M435.27 425.398C422.736 454.735 413.916 485.644 409.031 517.348C407.659 526.254 406.597 535.203 405.846 544.196C405.709 545.825 408.15 545.816 408.286 544.196C410.942 512.562 417.506 481.417 427.813 451.533C430.709 443.13 433.897 434.847 437.377 426.681C438.009 425.199 435.907 423.905 435.27 425.398V425.398Z" fill="white"/>
<path d="M86.2681 544.808C61.2704 538.03 39.181 522.706 23.5408 501.291C7.90054 479.876 -0.384672 453.611 0.0132502 426.706C0.112386 420.002 0.788987 413.158 3.49407 407.075C6.19916 400.992 11.2238 395.73 17.5091 394.289C24.3685 392.716 31.6068 395.931 36.7187 400.949C41.8306 405.967 45.1824 412.587 48.2662 419.161C66.8407 458.756 80.9531 501.242 86.2368 544.968L86.2681 544.808Z" fill="#F2F2F2"/>
<path d="M14.3972 395.61L27.4152 426.422L40.4332 457.234C44.5561 466.992 48.671 476.755 52.9324 486.449C57.1564 496.057 61.5251 505.599 66.1857 514.988C70.8397 524.362 75.7859 533.584 81.1549 542.536C81.8235 543.651 82.4987 544.761 83.1804 545.868C83.6522 546.634 84.8316 545.923 84.3564 545.151C78.8845 536.266 73.8424 527.1 69.1135 517.765C64.3794 508.42 59.9548 498.907 55.6936 489.319C51.4096 479.68 47.2903 469.962 43.182 460.241C38.8577 450.007 34.5341 439.774 30.2112 429.54L17.1932 398.728L15.5731 394.894C15.2208 394.06 14.047 394.781 14.3971 395.61L14.3972 395.61Z" fill="white"/>
<path d="M80.8376 545.022C66.1028 548.533 50.663 546.789 36.9932 540.069C23.3234 533.35 12.2152 522.043 5.44934 507.963C3.7636 504.454 2.34122 500.711 2.16916 496.792C1.9971 492.873 3.24229 488.728 6.13195 486.212C9.28559 483.466 13.8769 483.1 17.8313 484.268C21.7856 485.435 25.2414 487.93 28.5461 490.475C48.4509 505.809 66.7881 523.898 80.8628 545.114L80.8376 545.022Z" fill="#F2F2F2"/>
<path d="M4.85868 487.773L19.6024 500.109L34.3461 512.445C39.0155 516.352 43.6819 520.263 48.4065 524.098C53.0896 527.899 57.8306 531.624 62.6832 535.187C67.529 538.746 72.4868 542.143 77.5942 545.28C78.2302 545.671 78.8686 546.058 79.5092 546.44C79.9527 546.706 80.3808 546.005 79.9342 545.738C74.7905 542.664 69.7975 539.323 64.9231 535.806C60.0433 532.285 55.281 528.591 50.5839 524.811C45.8617 521.012 41.2047 517.125 36.5524 513.233C31.6554 509.136 26.7586 505.039 21.8622 500.942L7.11847 488.606L5.2837 487.07C4.8847 486.737 4.46215 487.441 4.8587 487.773H4.85868Z" fill="white"/>
<path d="M708.374 547H35.5193C35.3919 547 35.2656 546.975 35.1478 546.924C35.03 546.873 34.9229 546.799 34.8327 546.706C34.7425 546.612 34.6709 546.5 34.622 546.378C34.5732 546.255 34.5481 546.124 34.5481 545.991C34.5481 545.858 34.5732 545.727 34.622 545.604C34.6709 545.482 34.7425 545.371 34.8327 545.277C34.9229 545.183 35.03 545.109 35.1478 545.058C35.2656 545.008 35.3919 544.982 35.5193 544.982H708.374C708.631 544.982 708.878 545.089 709.059 545.278C709.241 545.467 709.343 545.724 709.343 545.991C709.343 546.259 709.241 546.515 709.059 546.704C708.878 546.894 708.631 547 708.374 547Z" fill="#3F3D56"/>
<path d="M690.699 445.929H645.145C645.145 446.491 644.93 447.029 644.549 447.427C644.168 447.824 643.651 448.047 643.111 448.047H598.395C597.763 448.543 597.188 449.111 596.679 449.742C595.151 451.641 594.315 454.041 594.32 456.52V458.214C594.321 461.023 595.393 463.716 597.299 465.702C599.205 467.688 601.791 468.804 604.487 468.805H690.699C693.394 468.802 695.979 467.686 697.885 465.7C699.791 463.715 700.863 461.022 700.865 458.214V456.52C700.861 453.712 699.789 451.021 697.883 449.035C695.978 447.05 693.394 445.933 690.699 445.929V445.929Z" fill="#3F3D56"/>
<path d="M653.282 468.384H642.709V546.331H653.282V468.384Z" fill="#3F3D56"/>
<path d="M683.375 545.944C683.375 547.135 667.353 546.405 647.589 546.405C627.825 546.405 611.803 547.135 611.803 545.944C611.803 544.754 627.825 535.317 647.589 535.317C667.353 535.317 683.375 544.754 683.375 545.944Z" fill="#3F3D56"/>
<path d="M688.706 448.369L686.933 436.813C686.708 435.356 685.938 434.052 684.792 433.186C683.645 432.321 682.216 431.964 680.817 432.195L662.526 435.237L631.196 440.447L621.005 442.142H643.111C643.651 442.142 644.168 442.365 644.549 442.763C644.93 443.16 645.145 443.698 645.145 444.26V445.929C645.145 446.491 644.93 447.029 644.549 447.427C644.168 447.824 643.651 448.047 643.111 448.047H586.854C586.069 448.43 585.389 449.013 584.878 449.742C584.445 450.334 584.133 451.013 583.959 451.735C583.786 452.457 583.755 453.209 583.869 453.944L584.373 457.231L584.983 461.222L585.642 465.509C585.866 466.962 586.634 468.263 587.778 469.127C588.921 469.991 590.347 470.347 591.742 470.118L606.276 467.703L648.195 460.731L684.273 454.732C685.669 454.495 686.918 453.694 687.748 452.502C688.578 451.31 688.923 449.824 688.706 448.369Z" fill="white"/>
<path d="M605.162 449.742C604.627 449.002 603.919 448.418 603.104 448.047H587.554C586.736 448.416 586.024 449 585.488 449.742C584.764 450.707 584.372 451.897 584.373 453.122V517.691C584.375 519.163 584.937 520.573 585.936 521.613C586.935 522.653 588.289 523.239 589.701 523.241H600.949C602.361 523.239 603.715 522.653 604.714 521.613C605.712 520.573 606.274 519.162 606.276 517.691V453.122C606.277 451.897 605.885 450.708 605.162 449.742V449.742Z" fill="white"/>
<path d="M639.012 339.768L638.907 339.624L631.928 330.669C631.557 330.188 631.108 329.778 630.603 329.457C630.335 329.268 630.045 329.114 629.741 329C629.295 328.814 628.827 328.694 628.35 328.644C628.031 328.609 627.71 328.603 627.39 328.627C627.384 328.628 627.378 328.631 627.374 328.635C626.295 328.718 625.268 329.144 624.429 329.855L610.107 341.954L591.702 357.51L564.236 380.724L562.235 382.419H596.988L598.997 380.724L605.642 375.107L606.113 374.717L638.207 347.597L638.232 347.58C638.892 347.026 639.414 346.314 639.753 345.504C639.976 344.974 640.118 344.411 640.175 343.835C640.249 343.111 640.185 342.378 639.985 341.68C639.785 340.982 639.455 340.332 639.012 339.768Z" fill="white"/>
<path d="M638.907 339.624C638.458 337.341 637.462 335.213 636.011 333.439C634.565 331.652 632.703 330.28 630.603 329.457C630.277 329.33 629.96 329.211 629.635 329.118C628.901 328.891 628.15 328.726 627.39 328.627C627.384 328.628 627.378 328.631 627.374 328.635C623.952 328.223 620.51 329.214 617.777 331.397L593.003 351.121C592.477 351.612 592.051 352.207 591.75 352.872C591.45 353.537 591.281 354.259 591.254 354.993C591.216 355.857 591.369 356.718 591.701 357.51C591.783 357.688 591.872 357.866 591.97 358.035C592.16 358.379 592.389 358.698 592.653 358.984L596.622 363.627L605.853 374.413L606.113 374.718L606.707 375.421C607.18 375.96 607.75 376.398 608.385 376.707C609.02 377.017 609.707 377.193 610.408 377.225C611.108 377.257 611.808 377.145 612.466 376.895C613.125 376.645 613.73 376.262 614.246 375.768L635.612 351.859C636.722 350.617 637.602 349.172 638.207 347.597C639.183 345.068 639.426 342.296 638.907 339.624Z" fill="#2F2E41"/>
<path d="M648.352 308.945C670.866 308.945 689.117 289.932 689.117 266.478C689.117 243.025 670.866 224.012 648.352 224.012C625.838 224.012 607.587 243.025 607.587 266.478C607.587 289.932 625.838 308.945 648.352 308.945Z" fill="white"/>
<path d="M663.64 442.523L662.526 435.237L661.867 430.958C661.642 429.504 660.873 428.202 659.728 427.337C658.583 426.473 657.155 426.118 655.758 426.349L626.129 431.272L618.094 432.61L616.467 432.881V442.142H643.111C643.651 442.142 644.168 442.365 644.549 442.763C644.93 443.16 645.144 443.698 645.145 444.26V445.929C645.144 446.491 644.93 447.029 644.549 447.427C644.168 447.824 643.651 448.047 643.111 448.047H558.795C558.795 448.064 558.803 448.081 558.803 448.098L559.307 451.385L560.576 459.655C560.8 461.107 561.568 462.409 562.711 463.273C563.855 464.137 565.28 464.493 566.676 464.264L581.21 461.849L584.373 461.324L584.983 461.222L606.276 457.68L620.761 455.266L643.746 451.445L644.088 451.385L659.207 448.878C660.603 448.645 661.853 447.845 662.683 446.654C663.514 445.463 663.858 443.978 663.64 442.523V442.523Z" fill="white"/>
<path d="M703.834 411.361C703.834 445.98 700.458 466.687 648.406 460.756C648.333 460.748 648.268 460.739 648.195 460.731C638.911 459.775 629.729 457.946 620.761 455.266C616.101 453.848 611.572 451.999 607.228 449.742C606.203 449.199 605.219 448.632 604.251 448.047H643.111C643.651 448.047 644.168 447.824 644.549 447.427C644.93 447.029 645.144 446.491 645.145 445.929V444.26C645.144 443.698 644.93 443.16 644.549 442.763C644.168 442.365 643.651 442.142 643.111 442.142H616.467V388.629C616.465 386.983 615.836 385.405 614.719 384.241C613.601 383.076 612.086 382.421 610.506 382.419H588.83C589.018 381.86 589.204 381.292 589.408 380.724C591.441 374.863 593.851 369.151 596.622 363.627C600.417 355.956 604.935 348.696 610.107 341.954C613.709 337.256 617.752 332.945 622.176 329.084C630.334 322.069 639.216 317.731 648.227 317.731C681.459 317.731 703.834 376.742 703.834 411.361Z" fill="#2F2E41"/>
<path d="M649.209 282.218L649.251 280.631C646.417 280.549 643.918 280.364 642.041 278.935C641.509 278.507 641.071 277.964 640.758 277.344C640.445 276.724 640.264 276.041 640.227 275.342C640.194 274.914 640.256 274.485 640.408 274.086C640.561 273.688 640.799 273.332 641.105 273.045C642.351 271.948 644.357 272.303 645.819 273.001L647.079 273.604L644.662 255.203L643.153 255.418L645.209 271.07C644.367 270.745 643.461 270.645 642.572 270.778C641.684 270.911 640.841 271.274 640.122 271.833C639.638 272.273 639.258 272.824 639.012 273.442C638.766 274.06 638.661 274.73 638.705 275.397C638.749 276.337 638.99 277.255 639.412 278.088C639.833 278.92 640.423 279.647 641.142 280.216C643.555 282.053 646.69 282.144 649.209 282.218Z" fill="#2F2E41"/>
<path d="M635.689 256.768H627.484V258.355H635.689V256.768Z" fill="#2F2E41"/>
<path d="M661.586 256.768H653.382V258.355H661.586V256.768Z" fill="#2F2E41"/>
<path d="M680.886 254.811C677.716 249.839 672.137 247.732 666.636 247.219C660.444 246.642 654.461 247.886 648.416 249.094C641.762 250.424 634.721 251.668 628.017 249.987C625.051 249.272 622.28 247.866 619.912 245.873C617.544 243.88 615.641 241.354 614.347 238.483C611.893 232.884 611.364 226.574 612.85 220.616C614.421 214.279 618.32 208.703 623.047 204.492C632.695 195.896 645.752 192.033 658.31 192.397C670.82 192.733 682.912 197.162 692.871 205.056C702.848 213.235 709.868 224.695 712.786 237.566C715.837 250.331 714.843 263.782 709.952 275.91C707.204 282.551 703.23 288.538 700.163 295.012C697.307 301.039 695.108 308.047 696.885 314.77C698.444 320.669 703.021 325.91 708.767 327.511C711.381 328.226 714.148 328.037 716.65 326.973C719.152 325.909 721.255 324.027 722.643 321.611C725.515 316.892 725.584 310.712 721.271 306.902C720.184 305.926 718.917 305.19 717.548 304.74C716.179 304.289 714.736 304.134 713.308 304.282C711.879 304.431 710.495 304.88 709.238 305.604C707.982 306.327 706.88 307.309 705.999 308.49C704.249 310.857 703.466 313.848 703.819 316.813C704.032 318.311 701.83 318.958 701.616 317.446C701.101 314.31 701.672 311.086 703.226 308.348C704.781 305.609 707.218 303.535 710.103 302.494C712.989 301.453 716.136 301.513 718.983 302.663C721.83 303.814 724.192 305.98 725.65 308.775C728.25 313.869 726.847 320.013 723.546 324.368C721.842 326.687 719.533 328.446 716.895 329.434C714.257 330.422 711.402 330.598 708.671 329.94C702.661 328.494 697.745 323.518 695.433 317.671C692.859 311.162 694.038 303.898 696.547 297.581C699.26 290.753 703.288 284.629 706.473 278.049C709.357 272.103 711.192 265.665 711.891 259.043C713.29 245.745 710.393 232.341 703.658 220.951C696.793 209.737 686.314 201.441 674.105 197.553C661.984 193.496 648.899 193.857 637.001 198.575C625.39 203.341 614.178 213.727 614.313 227.676C614.37 233.635 616.494 239.712 620.875 243.686C626.111 248.435 633.401 248.842 639.983 248.1C646.607 247.354 653.04 245.339 659.692 244.825C665.478 244.378 671.721 244.843 676.887 247.837C679.293 249.235 681.341 251.215 682.859 253.609C683.675 254.889 681.697 256.082 680.886 254.811V254.811Z" fill="#2F2E41"/>
<path d="M672.586 351.909L669.357 349.571L663.347 345.225C662.184 344.388 660.751 344.065 659.361 344.327C657.97 344.589 656.736 345.414 655.929 346.623L636.336 375.997L618.094 403.346L616.467 405.786V442.142H616.613C617.881 442.011 619.062 441.41 619.94 440.447C620.128 440.246 620.3 440.027 620.453 439.795L626.129 431.272L640.159 410.234L654.701 388.443L656.084 386.367L673.912 359.636C674.009 359.495 674.099 359.348 674.18 359.196C674.262 359.051 674.335 358.901 674.4 358.747C674.911 357.566 675.01 356.236 674.679 354.987C674.347 353.738 673.607 352.649 672.586 351.909V351.909Z" fill="white"/>
<path d="M672.643 340.285C672.068 339.892 671.464 339.546 670.837 339.251C668.059 337.925 664.927 337.635 661.967 338.432C659.008 339.228 656.402 341.061 654.587 343.623L636.076 369.769C635.704 370.392 635.455 371.085 635.343 371.809C635.231 372.533 635.258 373.273 635.423 373.986C635.588 374.699 635.888 375.37 636.304 375.961C636.721 376.552 637.246 377.051 637.849 377.429L654.701 388.443L654.913 388.578L655.758 389.129C656.968 389.891 658.419 390.123 659.792 389.773C661.165 389.424 662.35 388.522 663.087 387.265L676.157 360.238L676.376 359.789L676.384 359.78L677.189 358.094C678.658 355.061 679.006 351.572 678.168 348.289C677.33 345.006 675.364 342.158 672.643 340.285Z" fill="#2F2E41"/>
<path d="M559.307 448.047V511.837C559.309 513.308 559.871 514.718 560.869 515.758C561.868 516.799 563.222 517.384 564.634 517.386H575.882C577.295 517.384 578.648 516.799 579.647 515.759C580.646 514.718 581.208 513.308 581.21 511.837V448.047H559.307Z" fill="white"/>
<path d="M643.111 440.447H618.094V388.629C618.092 386.534 617.291 384.524 615.869 383.042C614.446 381.56 612.517 380.727 610.506 380.724H517.73C515.717 380.725 513.786 381.558 512.362 383.04C510.938 384.522 510.136 386.532 510.134 388.629V441.837C510.136 443.934 510.938 445.944 512.362 447.426C513.786 448.908 515.717 449.741 517.73 449.742H643.111C643.242 449.742 643.364 449.733 643.486 449.725C643.599 449.716 643.713 449.691 643.827 449.674C644.657 449.499 645.403 449.031 645.94 448.348C646.476 447.666 646.77 446.811 646.771 445.929V444.26C646.771 443.249 646.386 442.279 645.699 441.564C645.013 440.849 644.082 440.447 643.111 440.447ZM643.111 448.047H517.73C516.148 448.047 514.631 447.392 513.512 446.228C512.393 445.064 511.763 443.484 511.76 441.837V388.629C511.763 386.982 512.393 385.402 513.512 384.238C514.631 383.074 516.148 382.42 517.73 382.419H610.506C612.086 382.421 613.601 383.076 614.719 384.241C615.836 385.405 616.465 386.983 616.467 388.629V442.142H643.111C643.651 442.142 644.168 442.365 644.549 442.762C644.93 443.16 645.144 443.698 645.145 444.26V445.929C645.144 446.491 644.93 447.029 644.549 447.427C644.168 447.824 643.651 448.047 643.111 448.047V448.047Z" fill="#3F3D56"/>
<path d="M564.115 421.749C567.569 421.749 570.369 418.832 570.369 415.234C570.369 411.635 567.569 408.718 564.115 408.718C560.66 408.718 557.86 411.635 557.86 415.234C557.86 418.832 560.66 421.749 564.115 421.749Z" fill="white"/>
<path d="M99.2219 306.147C123.262 306.147 142.75 285.845 142.75 260.802C142.75 235.759 123.262 215.458 99.2219 215.458C75.182 215.458 55.6937 235.759 55.6937 260.802C55.6937 285.845 75.182 306.147 99.2219 306.147Z" fill="white"/>
<path d="M90.7367 431.382H78.7322C77.3306 431.383 75.9867 431.964 74.9955 432.996C74.0044 434.029 73.447 435.429 73.4457 436.889V541.109C73.447 542.57 74.0044 543.97 74.9955 545.002C75.9867 546.035 77.3306 546.615 78.7322 546.617H90.7367C92.1383 546.615 93.4822 546.035 94.4734 545.002C95.4645 543.97 96.0219 542.57 96.0232 541.109V436.889C96.0219 435.429 95.4645 434.029 94.4734 432.996C93.4822 431.964 92.1383 431.383 90.7367 431.382V431.382Z" fill="#2F2E41"/>
<path d="M116.104 431.382H104.1C102.698 431.383 101.354 431.964 100.363 432.996C99.3718 434.029 98.8144 435.429 98.8131 436.889V541.109C98.8144 542.57 99.3718 543.97 100.363 545.002C101.354 546.035 102.698 546.615 104.1 546.617H116.104C116.798 546.617 117.486 546.474 118.127 546.198C118.769 545.921 119.351 545.515 119.842 545.004C120.333 544.492 120.723 543.885 120.988 543.217C121.254 542.549 121.391 541.833 121.391 541.109V436.889C121.391 436.166 121.254 435.449 120.988 434.781C120.723 434.113 120.333 433.506 119.842 432.995C119.351 432.483 118.769 432.078 118.127 431.801C117.486 431.524 116.798 431.382 116.104 431.382V431.382Z" fill="#2F2E41"/>
<path d="M124.798 329.923C120.592 324.26 114.79 320.108 108.207 318.048C101.623 315.989 94.5854 316.125 88.0795 318.438C81.5736 320.75 75.9244 325.124 71.9223 330.946C67.9202 336.769 65.7655 343.749 65.7596 350.91V443.209C65.7564 443.49 65.7782 443.771 65.8247 444.048C66.0178 445.46 66.6932 446.753 67.7269 447.688C68.7607 448.623 70.0836 449.139 71.4529 449.14H126.002C127.511 449.137 128.958 448.511 130.025 447.4C131.092 446.288 131.693 444.781 131.696 443.209V350.91C131.706 343.309 129.278 335.923 124.798 329.923V329.923Z" fill="#2F2E41"/>
<path d="M135.98 280.847L135.935 279.152C138.961 279.065 141.629 278.867 143.634 277.341C144.202 276.884 144.669 276.305 145.004 275.643C145.338 274.981 145.531 274.251 145.571 273.505C145.606 273.048 145.54 272.59 145.377 272.164C145.214 271.739 144.96 271.358 144.633 271.052C143.302 269.881 141.161 270.26 139.6 271.006L138.254 271.649L140.835 252.001L142.447 252.231L140.252 268.944C142.372 268.294 144.337 268.574 145.683 269.758C146.2 270.228 146.605 270.816 146.868 271.476C147.13 272.137 147.243 272.851 147.196 273.564C147.149 274.568 146.891 275.548 146.441 276.437C145.992 277.326 145.361 278.102 144.593 278.71C142.018 280.671 138.67 280.768 135.98 280.847Z" fill="#2F2E41"/>
<path d="M131.525 253.672H122.764V255.366H131.525V253.672Z" fill="#2F2E41"/>
<path d="M86.4588 331.228C85.9892 330.694 85.4224 330.262 84.7913 329.958C84.1602 329.654 83.4774 329.484 82.7826 329.457L73.3237 329.051L70.794 328.94C69.3936 328.881 68.0276 329.402 66.9954 330.39C65.9633 331.378 65.3492 332.752 65.2879 334.21L63.7915 371.761L61.1482 438.346C61.0943 439.736 61.5461 441.095 62.4132 442.152C63.2804 443.21 64.4989 443.887 65.8248 444.048C65.955 444.065 66.077 444.074 66.2072 444.082L73.4457 444.396L78.2037 444.599C78.5847 444.617 78.9665 444.591 79.3423 444.523C80.3359 444.338 81.2584 443.861 82.0018 443.15C82.5146 442.661 82.929 442.071 83.2208 441.413C83.5126 440.756 83.676 440.044 83.7015 439.321L84.0188 431.382L86.3532 372.659L87.8496 335.185C87.908 333.726 87.4077 332.303 86.4588 331.228V331.228Z" fill="white"/>
<path d="M79.5293 323.01C78.5184 322.787 77.4879 322.677 76.4547 322.679C72.4656 322.684 68.6413 324.337 65.8206 327.276C62.9999 330.214 61.4131 334.198 61.4083 338.353V367.16C61.4105 368.072 61.6293 368.969 62.0451 369.772C62.4609 370.575 63.0608 371.258 63.7914 371.761C64.3871 372.169 65.057 372.446 65.7596 372.574C66.0679 372.635 66.381 372.666 66.6949 372.667H86.2145C86.2609 372.669 86.3073 372.666 86.3531 372.659C87.73 372.622 89.0386 372.027 90.0002 370.999C90.9618 369.972 91.5004 368.595 91.5011 367.16V338.353C91.4968 334.754 90.305 331.265 88.1255 328.471C85.9459 325.678 82.911 323.75 79.5293 323.01V323.01Z" fill="#2F2E41"/>
<path d="M183.781 405.049C182.505 404.363 181.503 403.229 180.953 401.847C180.402 400.466 180.338 398.926 180.771 397.5L185.399 382.156L184.049 380.987L148.531 350.376L124.798 329.923L121.911 327.432C120.832 326.501 119.441 326.055 118.046 326.191C116.65 326.328 115.364 327.036 114.469 328.161L106.816 337.803C106.372 338.359 106.038 339.001 105.833 339.692C105.628 340.383 105.556 341.11 105.621 341.83C105.686 342.55 105.887 343.25 106.212 343.889C106.537 344.528 106.98 345.094 107.515 345.555L131.696 366.397L134.445 368.761L184.602 411.988C185.53 412.791 186.693 413.239 187.899 413.257C189.105 413.276 190.281 412.864 191.231 412.09C191.492 411.876 191.732 411.635 191.946 411.37C191.981 411.335 192.014 411.298 192.044 411.259L193.012 410.039L183.781 405.049Z" fill="white"/>
<path d="M146.823 344.496L125.425 326.255C123.896 324.951 122.136 323.973 120.244 323.378C118.352 322.783 116.367 322.581 114.401 322.785C112.434 322.989 110.526 323.595 108.784 324.568C107.043 325.54 105.502 326.86 104.25 328.453C102.998 330.046 102.06 331.88 101.488 333.85C100.917 335.821 100.724 337.889 100.92 339.938C101.316 344.074 103.273 347.878 106.361 350.511L127.759 368.753C128.702 369.557 129.882 369.997 131.1 369.999C132.319 370 133.5 369.563 134.445 368.761C134.726 368.534 134.98 368.273 135.201 367.982L147.563 352.248C148.001 351.697 148.33 351.06 148.531 350.376C148.836 349.33 148.836 348.213 148.532 347.166C148.228 346.12 147.633 345.191 146.823 344.496V344.496Z" fill="#2F2E41"/>
<path d="M88.3092 268.48C86.0426 264.535 84.2687 260.189 85.1107 255.515C85.8625 251.341 88.7457 248.091 92.8915 247.664C95.3881 247.408 97.8728 248.102 100.311 248.554C102.31 248.92 104.341 249.057 106.369 248.963C110.448 248.77 114.447 247.713 118.122 245.858C121.852 244.04 125.166 241.411 127.839 238.147C130.512 234.884 132.484 231.062 133.621 226.938C136.095 217.556 134.258 206.902 128.383 199.265L130.422 198.704L127.767 207.79C127.716 207.976 127.624 208.148 127.499 208.292C127.375 208.436 127.22 208.549 127.048 208.622C126.876 208.695 126.689 208.727 126.504 208.714C126.318 208.702 126.137 208.645 125.975 208.549C121.163 205.382 115.784 203.267 110.164 202.33C104.543 201.394 98.799 201.658 93.2792 203.104C90.1602 203.92 87.1477 205.127 84.3075 206.699C82.9216 207.466 81.6875 205.273 83.076 204.504C88.4106 201.605 94.2543 199.863 100.254 199.385C106.253 198.906 112.283 199.7 117.979 201.719C121.223 202.87 124.322 204.427 127.207 206.355L125.415 207.114L128.069 198.028C128.129 197.816 128.24 197.623 128.392 197.468C128.544 197.314 128.731 197.203 128.937 197.146C129.142 197.09 129.358 197.09 129.563 197.146C129.768 197.202 129.956 197.313 130.109 197.467C132.841 201.078 134.844 205.228 135.996 209.666C137.148 214.105 137.425 218.741 136.811 223.294C136.218 227.782 134.721 232.088 132.418 235.931C130.116 239.774 127.059 243.066 123.449 245.593C119.843 248.128 115.79 249.894 111.525 250.787C107.259 251.68 102.866 251.684 98.5996 250.796C96.2117 250.318 93.5038 249.634 91.1609 250.675C90.3112 251.102 89.5621 251.719 88.9669 252.482C88.3718 253.244 87.9451 254.134 87.7173 255.088C86.3896 259.774 88.6487 264.224 90.9563 268.121L88.3092 268.48Z" fill="#2F2E41"/>
<path d="M247.106 362.356L206.871 338.099C205.869 337.496 204.749 337.134 203.595 337.042C202.441 336.949 201.282 337.128 200.203 337.565C199.124 338.002 198.153 338.685 197.362 339.565C196.57 340.445 195.979 341.499 195.631 342.649L184.049 380.987L179.218 396.992C178.67 398.798 178.753 400.747 179.451 402.495C180.149 404.244 181.417 405.679 183.032 406.549L191.946 411.37L221.031 427.086C222.131 427.682 223.353 427.993 224.593 427.993C225.509 427.99 226.417 427.821 227.277 427.493L227.334 427.467C228.35 427.063 229.273 426.441 230.044 425.641C230.815 424.841 231.415 423.882 231.807 422.824L250.448 372.201C251.113 370.415 251.141 368.44 250.528 366.634C249.915 364.827 248.701 363.31 247.106 362.356V362.356ZM248.927 371.6L230.286 422.223C229.976 423.057 229.501 423.815 228.891 424.445C228.281 425.076 227.551 425.566 226.748 425.883L226.708 425.9C225.91 426.207 225.06 426.337 224.212 426.283C223.363 426.229 222.535 425.992 221.779 425.586L193.012 410.039L183.781 405.049C182.505 404.363 181.503 403.229 180.953 401.847C180.402 400.466 180.338 398.926 180.771 397.5L185.399 382.156L197.176 343.157C197.453 342.251 197.921 341.42 198.546 340.727C199.171 340.034 199.937 339.495 200.788 339.15C201.639 338.806 202.553 338.664 203.464 338.736C204.374 338.808 205.258 339.091 206.049 339.565L246.284 363.822C247.545 364.575 248.505 365.773 248.99 367.2C249.475 368.627 249.453 370.188 248.927 371.6V371.6Z" fill="#3F3D56"/>
<path d="M233.607 378.576C233.199 378.576 232.798 378.469 232.44 378.265L205.601 363.015C205.035 362.69 204.615 362.146 204.434 361.5C204.253 360.855 204.325 360.16 204.634 359.57C204.943 358.979 205.465 358.541 206.084 358.35C206.703 358.159 207.37 358.231 207.937 358.552L234.777 373.802C235.253 374.073 235.629 374.501 235.846 375.019C236.062 375.537 236.107 376.115 235.973 376.663C235.838 377.21 235.533 377.696 235.104 378.042C234.676 378.388 234.149 378.576 233.606 378.576H233.607Z" fill="white"/>
<path d="M228.727 389.59C228.319 389.59 227.918 389.483 227.56 389.279L200.721 374.029C200.155 373.705 199.735 373.16 199.554 372.515C199.373 371.869 199.445 371.175 199.754 370.584C200.063 369.994 200.585 369.555 201.204 369.364C201.823 369.173 202.49 369.246 203.057 369.566L229.897 384.816C230.373 385.087 230.749 385.515 230.966 386.033C231.182 386.551 231.227 387.13 231.093 387.677C230.958 388.225 230.653 388.71 230.225 389.056C229.796 389.403 229.269 389.59 228.727 389.59H228.727Z" fill="white"/>
<path d="M224.66 401.452C224.252 401.451 223.851 401.345 223.494 401.141L196.654 385.89C196.088 385.566 195.669 385.022 195.488 384.376C195.306 383.73 195.378 383.036 195.688 382.446C195.997 381.855 196.518 381.416 197.137 381.226C197.756 381.035 198.423 381.107 198.991 381.427L225.83 396.678C226.307 396.948 226.683 397.377 226.899 397.895C227.116 398.413 227.16 398.991 227.026 399.539C226.892 400.086 226.586 400.571 226.158 400.918C225.729 401.264 225.202 401.452 224.66 401.452H224.66Z" fill="white"/>
<path d="M508.487 161.438H395.656C394.034 161.436 392.48 160.764 391.333 159.569C390.186 158.375 389.541 156.755 389.539 155.065V6.37255C389.541 4.68303 390.186 3.06326 391.333 1.8686C392.48 0.673926 394.034 0.00192177 395.656 0H508.487C510.109 0.00193296 511.664 0.673941 512.811 1.86861C513.957 3.06327 514.603 4.68304 514.604 6.37255V155.065C514.603 156.755 513.957 158.375 512.811 159.569C511.664 160.764 510.109 161.436 508.487 161.438V161.438ZM395.656 1.41613C394.395 1.4176 393.185 1.94027 392.293 2.86946C391.401 3.79865 390.9 5.05847 390.898 6.37255V155.065C390.9 156.38 391.401 157.639 392.293 158.569C393.185 159.498 394.395 160.02 395.656 160.022H508.487C509.748 160.02 510.958 159.498 511.85 158.569C512.742 157.639 513.244 156.38 513.245 155.065V6.37255C513.244 5.05847 512.742 3.79865 511.85 2.86946C510.958 1.94027 509.748 1.4176 508.487 1.41613H395.656Z" fill="#3F3D56"/>
<path d="M442.686 71.4729H417.849C417.039 71.472 416.261 71.136 415.688 70.5387C415.114 69.9413 414.792 69.1314 414.791 68.2867V37.7553C414.792 36.9105 415.114 36.1006 415.688 35.5033C416.261 34.906 417.039 34.57 417.849 34.569H442.686C443.497 34.57 444.274 34.906 444.848 35.5033C445.421 36.1006 445.744 36.9105 445.745 37.7553V68.2867C445.744 69.1314 445.421 69.9413 444.848 70.5387C444.274 71.136 443.497 71.472 442.686 71.4729V71.4729Z" fill="white"/>
<path d="M490.945 85.6342H466.108C465.297 85.6332 464.52 85.2972 463.947 84.6999C463.373 84.1025 463.051 83.2926 463.05 82.4479V51.9165C463.051 51.0718 463.373 50.2619 463.947 49.6645C464.52 49.0672 465.297 48.7312 466.108 48.7303H490.945C491.756 48.7312 492.533 49.0672 493.107 49.6645C493.68 50.2619 494.003 51.0718 494.003 51.9165V82.4479C494.003 83.2926 493.68 84.1025 493.107 84.6999C492.533 85.2972 491.756 85.6332 490.945 85.6342Z" fill="#CCCCCC"/>
<path d="M452.202 128.826H427.365C426.554 128.825 425.777 128.489 425.203 127.892C424.63 127.294 424.308 126.484 424.307 125.64V95.1083C424.308 94.2635 424.63 93.4536 425.203 92.8563C425.777 92.2589 426.554 91.9229 427.365 91.922H452.202C453.013 91.9229 453.79 92.2589 454.364 92.8563C454.937 93.4536 455.259 94.2635 455.26 95.1083V125.64C455.259 126.484 454.937 127.294 454.364 127.892C453.79 128.489 453.013 128.825 452.202 128.826Z" fill="#FF6584"/>
<path d="M361.308 121.248C360.839 120.087 360.053 119.096 359.048 118.395C358.044 117.695 356.864 117.317 355.656 117.308H242.824C241.202 117.309 239.647 117.98 238.5 119.175C237.353 120.37 236.708 121.99 236.707 123.679V272.372C236.708 274.062 237.353 275.682 238.5 276.876C239.647 278.071 241.202 278.743 242.824 278.743H355.656C357.277 278.741 358.831 278.069 359.978 276.875C361.124 275.68 361.77 274.061 361.772 272.372V123.679C361.774 122.845 361.617 122.018 361.308 121.248V121.248ZM360.414 272.372C360.412 273.686 359.91 274.946 359.018 275.875C358.126 276.804 356.917 277.327 355.656 277.329H242.824C241.562 277.328 240.352 276.806 239.46 275.877C238.567 274.947 238.066 273.687 238.066 272.372V123.679C238.067 122.365 238.569 121.106 239.461 120.176C240.353 119.247 241.562 118.725 242.824 118.723H355.656C356.606 118.727 357.533 119.025 358.32 119.581C359.107 120.136 359.717 120.923 360.072 121.841C360.141 122.024 360.201 122.21 360.251 122.4C360.359 122.817 360.414 123.247 360.414 123.679V272.372Z" fill="#3F3D56"/>
<path d="M337.758 152.415H303.773C303.052 152.415 302.36 152.116 301.85 151.585C301.341 151.054 301.054 150.334 301.054 149.582C301.054 148.831 301.341 148.111 301.85 147.58C302.36 147.049 303.052 146.75 303.773 146.75H337.758C338.479 146.75 339.171 147.049 339.681 147.58C340.19 148.111 340.477 148.831 340.477 149.582C340.477 150.334 340.19 151.054 339.681 151.585C339.171 152.116 338.479 152.415 337.758 152.415V152.415Z" fill="#3F3D56"/>
<path d="M337.758 167.284H303.773C303.052 167.284 302.36 166.986 301.85 166.454C301.341 165.923 301.054 165.203 301.054 164.452C301.054 163.701 301.341 162.98 301.85 162.449C302.36 161.918 303.052 161.619 303.773 161.619H337.758C338.479 161.619 339.171 161.918 339.681 162.449C340.19 162.98 340.477 163.701 340.477 164.452C340.477 165.203 340.19 165.923 339.681 166.454C339.171 166.986 338.479 167.284 337.758 167.284V167.284Z" fill="#3F3D56"/>
<path d="M286.335 175.751H261.499C260.688 175.75 259.91 175.414 259.337 174.816C258.763 174.219 258.441 173.409 258.44 172.564V142.033C258.441 141.188 258.763 140.378 259.337 139.781C259.91 139.184 260.688 138.848 261.499 138.847H286.335C287.146 138.848 287.923 139.184 288.497 139.781C289.07 140.378 289.393 141.188 289.394 142.033V172.564C289.393 173.409 289.07 174.219 288.497 174.816C287.923 175.414 287.146 175.75 286.335 175.751V175.751Z" fill="white"/>
<path d="M337.523 197.731H260.716C260.359 197.731 260.005 197.658 259.674 197.516C259.344 197.374 259.044 197.166 258.791 196.903C258.538 196.64 258.337 196.327 258.2 195.983C258.063 195.639 257.993 195.271 257.993 194.898C257.993 194.526 258.063 194.157 258.2 193.813C258.337 193.469 258.538 193.157 258.791 192.894C259.044 192.631 259.344 192.422 259.674 192.28C260.005 192.138 260.359 192.065 260.716 192.066H337.523C338.243 192.067 338.933 192.366 339.442 192.897C339.951 193.428 340.237 194.148 340.237 194.898C340.237 195.649 339.951 196.368 339.442 196.899C338.933 197.43 338.243 197.729 337.523 197.731V197.731Z" fill="#CCCCCC"/>
<path d="M337.523 212.6H260.716C260.359 212.601 260.005 212.528 259.674 212.386C259.344 212.244 259.044 212.035 258.791 211.772C258.538 211.509 258.337 211.197 258.2 210.853C258.063 210.509 257.993 210.14 257.993 209.768C257.993 209.395 258.063 209.027 258.2 208.683C258.337 208.339 258.538 208.026 258.791 207.763C259.044 207.5 259.344 207.292 259.674 207.15C260.005 207.008 260.359 206.935 260.716 206.935H337.523C338.244 206.935 338.935 207.234 339.445 207.765C339.955 208.296 340.241 209.016 340.241 209.768C340.241 210.519 339.955 211.239 339.445 211.77C338.935 212.302 338.244 212.6 337.523 212.6Z" fill="#CCCCCC"/>
<path d="M337.523 227.469H260.716C260.359 227.47 260.005 227.397 259.674 227.255C259.344 227.113 259.044 226.904 258.791 226.641C258.538 226.378 258.337 226.066 258.2 225.722C258.063 225.378 257.993 225.009 257.993 224.637C257.993 224.265 258.063 223.896 258.2 223.552C258.337 223.208 258.538 222.896 258.791 222.633C259.044 222.369 259.344 222.161 259.674 222.019C260.005 221.877 260.359 221.804 260.716 221.805H337.523C338.244 221.805 338.935 222.103 339.445 222.634C339.955 223.165 340.241 223.886 340.241 224.637C340.241 225.388 339.955 226.109 339.445 226.64C338.935 227.171 338.244 227.469 337.523 227.469V227.469Z" fill="#CCCCCC"/>
<path d="M337.523 242.338H260.716C260.359 242.339 260.005 242.266 259.674 242.124C259.344 241.982 259.044 241.774 258.791 241.511C258.538 241.248 258.337 240.935 258.2 240.591C258.063 240.247 257.993 239.879 257.993 239.506C257.993 239.134 258.063 238.765 258.2 238.421C258.337 238.077 258.538 237.765 258.791 237.502C259.044 237.239 259.344 237.03 259.674 236.888C260.005 236.746 260.359 236.673 260.716 236.674H337.523C338.244 236.674 338.935 236.972 339.445 237.504C339.955 238.035 340.241 238.755 340.241 239.506C340.241 240.257 339.955 240.978 339.445 241.509C338.935 242.04 338.244 242.338 337.523 242.338Z" fill="#CCCCCC"/>
<path d="M337.523 257.208H260.716C260.359 257.208 260.005 257.136 259.674 256.994C259.344 256.852 259.044 256.643 258.791 256.38C258.538 256.117 258.337 255.804 258.2 255.461C258.063 255.117 257.993 254.748 257.993 254.376C257.993 254.003 258.063 253.635 258.2 253.291C258.337 252.947 258.538 252.634 258.791 252.371C259.044 252.108 259.344 251.9 259.674 251.757C260.005 251.615 260.359 251.543 260.716 251.543H337.523C338.243 251.545 338.933 251.844 339.442 252.375C339.951 252.906 340.237 253.625 340.237 254.376C340.237 255.126 339.951 255.846 339.442 256.377C338.933 256.908 338.243 257.206 337.523 257.208Z" fill="#CCCCCC"/>
<path d="M446.833 177.677L382.511 241.471L383.448 242.496L447.77 178.703L446.833 177.677Z" fill="#E6E6E6"/>
<path d="M381.91 243.041L390.074 242.941L390.059 241.524L383.356 241.608L383.766 234.638L382.408 234.553L381.91 243.041Z" fill="#E6E6E6"/>
<path d="M448.368 177.129L447.872 185.619L446.514 185.534L446.923 178.564L440.22 178.648L440.206 177.231L448.368 177.129Z" fill="#E6E6E6"/>
<path d="M415.14 217.875C419.27 217.875 422.617 214.388 422.617 210.087C422.617 205.785 419.27 202.298 415.14 202.298C411.011 202.298 407.664 205.785 407.664 210.087C407.664 214.388 411.011 217.875 415.14 217.875Z" fill="#E6E6E6"/>
<path d="M360.621 26.866L296.299 90.6595L297.236 91.6852L361.558 27.8917L360.621 26.866Z" fill="#E6E6E6"/>
<path d="M295.698 92.2303L303.862 92.1303L303.848 90.7128L297.144 90.7967L297.554 83.8272L296.196 83.7416L295.698 92.2303Z" fill="#E6E6E6"/>
<path d="M362.156 26.3182L361.66 34.8077L360.302 34.723L360.711 27.7526L354.008 27.8365L353.994 26.4199L362.156 26.3182Z" fill="#E6E6E6"/>
<path d="M328.928 67.0642C333.058 67.0642 336.405 63.5771 336.405 59.2755C336.405 54.9739 333.058 51.4868 328.928 51.4868C324.799 51.4868 321.452 54.9739 321.452 59.2755C321.452 63.5771 324.799 67.0642 328.928 67.0642Z" fill="#E6E6E6"/>
<path d="M618.069 441.345H616.443V448.971H618.069V441.345Z" fill="#3F3D56"/>
</g>
<defs>
<clipPath id="clip0_13_225">
<rect width="727" height="547" fill="white"/>
</clipPath>
</defs>
</svg>
