<svg id="visual" viewBox="0 0 1920 1080" width="1920" height="1080" xmlns="http://www.w3.org/2000/svg" xmlns:xlink="http://www.w3.org/1999/xlink" version="1.1"><rect x="0" y="0" width="1920" height="1080" fill="#ffffff"></rect><defs><linearGradient id="grad1_0" x1="43.8%" y1="0%" x2="100%" y2="100%"><stop offset="14.444444444444446%" stop-color="#cb4085" stop-opacity="1"></stop><stop offset="85.55555555555554%" stop-color="#cb4085" stop-opacity="1"></stop></linearGradient></defs><defs><linearGradient id="grad1_1" x1="43.8%" y1="0%" x2="100%" y2="100%"><stop offset="14.444444444444446%" stop-color="#cb4085" stop-opacity="1"></stop><stop offset="85.55555555555554%" stop-color="#e185ac" stop-opacity="1"></stop></linearGradient></defs><defs><linearGradient id="grad1_2" x1="43.8%" y1="0%" x2="100%" y2="100%"><stop offset="14.444444444444446%" stop-color="#f3c2d5" stop-opacity="1"></stop><stop offset="85.55555555555554%" stop-color="#e185ac" stop-opacity="1"></stop></linearGradient></defs><defs><linearGradient id="grad1_3" x1="43.8%" y1="0%" x2="100%" y2="100%"><stop offset="14.444444444444446%" stop-color="#f3c2d5" stop-opacity="1"></stop><stop offset="85.55555555555554%" stop-color="#ffffff" stop-opacity="1"></stop></linearGradient></defs><defs><linearGradient id="grad2_0" x1="0%" y1="0%" x2="56.3%" y2="100%"><stop offset="14.444444444444446%" stop-color="#cb4085" stop-opacity="1"></stop><stop offset="85.55555555555554%" stop-color="#cb4085" stop-opacity="1"></stop></linearGradient></defs><defs><linearGradient id="grad2_1" x1="0%" y1="0%" x2="56.3%" y2="100%"><stop offset="14.444444444444446%" stop-color="#e185ac" stop-opacity="1"></stop><stop offset="85.55555555555554%" stop-color="#cb4085" stop-opacity="1"></stop></linearGradient></defs><defs><linearGradient id="grad2_2" x1="0%" y1="0%" x2="56.3%" y2="100%"><stop offset="14.444444444444446%" stop-color="#e185ac" stop-opacity="1"></stop><stop offset="85.55555555555554%" stop-color="#f3c2d5" stop-opacity="1"></stop></linearGradient></defs><defs><linearGradient id="grad2_3" x1="0%" y1="0%" x2="56.3%" y2="100%"><stop offset="14.444444444444446%" stop-color="#ffffff" stop-opacity="1"></stop><stop offset="85.55555555555554%" stop-color="#f3c2d5" stop-opacity="1"></stop></linearGradient></defs><g transform="translate(1920, 0)"><path d="M0 432C-40.9 435.2 -81.8 438.3 -111.8 417.3C-141.9 396.2 -161.1 351 -189.5 328.2C-217.9 305.4 -255.4 305.1 -290.6 290.6C-325.8 276.2 -358.7 247.6 -368.1 212.5C-377.4 177.4 -363.2 135.6 -369.9 99.1C-376.7 62.6 -404.3 31.3 -432 0L0 0Z" fill="#fae1ea"></path><path d="M0 324C-30.7 326.4 -61.3 328.7 -83.9 313C-106.4 297.2 -120.8 263.3 -142.1 246.2C-163.4 229.1 -191.6 228.8 -218 218C-244.4 207.1 -269 185.7 -276 159.4C-283.1 133 -272.4 101.7 -277.5 74.3C-282.5 47 -303.3 23.5 -324 0L0 0Z" fill="#eba4c0"></path><path d="M0 216C-20.4 217.6 -40.9 219.2 -55.9 208.6C-70.9 198.1 -80.6 175.5 -94.7 164.1C-108.9 152.7 -127.7 152.5 -145.3 145.3C-162.9 138.1 -179.4 123.8 -184 106.3C-188.7 88.7 -181.6 67.8 -185 49.6C-188.3 31.3 -202.2 15.7 -216 0L0 0Z" fill="#d76598"></path><path d="M0 108C-10.2 108.8 -20.4 109.6 -28 104.3C-35.5 99.1 -40.3 87.8 -47.4 82.1C-54.5 76.4 -63.9 76.3 -72.7 72.7C-81.5 69 -89.7 61.9 -92 53.1C-94.4 44.3 -90.8 33.9 -92.5 24.8C-94.2 15.7 -101.1 7.8 -108 0L0 0Z" fill="#cb4085"></path></g><g transform="translate(0, 1080)"><path d="M0 -432C39.3 -432.3 78.5 -432.6 111.8 -417.3C145.1 -402 172.4 -371.2 200 -346.4C227.6 -321.6 255.4 -302.9 279.3 -279.3C303.2 -255.7 323.1 -227.3 343.8 -198.5C364.5 -169.7 386 -140.6 400.9 -107.4C415.7 -74.3 423.8 -37.1 432 0L0 0Z" fill="#fae1ea"></path><path d="M0 -324C29.4 -324.2 58.9 -324.4 83.9 -313C108.8 -301.5 129.3 -278.4 150 -259.8C170.7 -241.2 191.6 -227.2 209.5 -209.5C227.4 -191.8 242.3 -170.5 257.9 -148.9C273.4 -127.3 289.5 -105.4 300.6 -80.6C311.8 -55.7 317.9 -27.8 324 0L0 0Z" fill="#eba4c0"></path><path d="M0 -216C19.6 -216.1 39.3 -216.3 55.9 -208.6C72.5 -201 86.2 -185.6 100 -173.2C113.8 -160.8 127.7 -151.4 139.7 -139.7C151.6 -127.9 161.6 -113.6 171.9 -99.3C182.3 -84.9 193 -70.3 200.4 -53.7C207.8 -37.1 211.9 -18.6 216 0L0 0Z" fill="#d76598"></path><path d="M0 -108C9.8 -108.1 19.6 -108.1 28 -104.3C36.3 -100.5 43.1 -92.8 50 -86.6C56.9 -80.4 63.9 -75.7 69.8 -69.8C75.8 -63.9 80.8 -56.8 86 -49.6C91.1 -42.4 96.5 -35.1 100.2 -26.9C103.9 -18.6 106 -9.3 108 0L0 0Z" fill="#cb4085"></path></g></svg>