<svg id="visual" viewBox="0 0 1920 1080" width="1920" height="1080" xmlns="http://www.w3.org/2000/svg" xmlns:xlink="http://www.w3.org/1999/xlink" version="1.1"><rect x="0" y="0" width="1920" height="1080" fill="#ffffff"></rect><defs><linearGradient id="grad1_0" x1="43.8%" y1="0%" x2="100%" y2="100%"><stop offset="14.444444444444446%" stop-color="#cb4085" stop-opacity="1"></stop><stop offset="85.55555555555554%" stop-color="#cb4085" stop-opacity="1"></stop></linearGradient></defs><defs><linearGradient id="grad1_1" x1="43.8%" y1="0%" x2="100%" y2="100%"><stop offset="14.444444444444446%" stop-color="#cb4085" stop-opacity="1"></stop><stop offset="85.55555555555554%" stop-color="#e185ac" stop-opacity="1"></stop></linearGradient></defs><defs><linearGradient id="grad1_2" x1="43.8%" y1="0%" x2="100%" y2="100%"><stop offset="14.444444444444446%" stop-color="#f3c2d5" stop-opacity="1"></stop><stop offset="85.55555555555554%" stop-color="#e185ac" stop-opacity="1"></stop></linearGradient></defs><defs><linearGradient id="grad1_3" x1="43.8%" y1="0%" x2="100%" y2="100%"><stop offset="14.444444444444446%" stop-color="#f3c2d5" stop-opacity="1"></stop><stop offset="85.55555555555554%" stop-color="#ffffff" stop-opacity="1"></stop></linearGradient></defs><defs><linearGradient id="grad2_0" x1="0%" y1="0%" x2="56.3%" y2="100%"><stop offset="14.444444444444446%" stop-color="#cb4085" stop-opacity="1"></stop><stop offset="85.55555555555554%" stop-color="#cb4085" stop-opacity="1"></stop></linearGradient></defs><defs><linearGradient id="grad2_1" x1="0%" y1="0%" x2="56.3%" y2="100%"><stop offset="14.444444444444446%" stop-color="#e185ac" stop-opacity="1"></stop><stop offset="85.55555555555554%" stop-color="#cb4085" stop-opacity="1"></stop></linearGradient></defs><defs><linearGradient id="grad2_2" x1="0%" y1="0%" x2="56.3%" y2="100%"><stop offset="14.444444444444446%" stop-color="#e185ac" stop-opacity="1"></stop><stop offset="85.55555555555554%" stop-color="#f3c2d5" stop-opacity="1"></stop></linearGradient></defs><defs><linearGradient id="grad2_3" x1="0%" y1="0%" x2="56.3%" y2="100%"><stop offset="14.444444444444446%" stop-color="#ffffff" stop-opacity="1"></stop><stop offset="85.55555555555554%" stop-color="#f3c2d5" stop-opacity="1"></stop></linearGradient></defs><g transform="translate(1920, 0)"><path d="M0 648C-45.7 599 -91.5 550 -143.9 537.1C-196.4 524.1 -255.5 547.3 -313.5 543C-371.5 538.7 -428.3 507.1 -458.2 458.2C-488.2 409.3 -491.3 343.1 -501.4 289.5C-511.6 235.9 -528.8 194.7 -554.4 148.6C-580 102.4 -614 51.2 -648 0L0 0Z" fill="#fae1ea"></path><path d="M0 486C-34.3 449.2 -68.6 412.5 -107.9 402.8C-147.3 393.1 -191.6 410.4 -235.1 407.2C-278.6 404.1 -321.2 380.3 -343.7 343.7C-366.1 307 -368.4 257.4 -376.1 217.1C-383.7 176.9 -396.6 146 -415.8 111.4C-435 76.8 -460.5 38.4 -486 0L0 0Z" fill="#eba4c0"></path><path d="M0 324C-22.9 299.5 -45.7 275 -72 268.5C-98.2 262.1 -127.8 273.6 -156.7 271.5C-185.7 269.4 -214.1 253.6 -229.1 229.1C-244.1 204.7 -245.6 171.6 -250.7 144.8C-255.8 117.9 -264.4 97.4 -277.2 74.3C-290 51.2 -307 25.6 -324 0L0 0Z" fill="#d76598"></path><path d="M0 162C-11.4 149.7 -22.9 137.5 -36 134.3C-49.1 131 -63.9 136.8 -78.4 135.7C-92.9 134.7 -107.1 126.8 -114.6 114.6C-122 102.3 -122.8 85.8 -125.4 72.4C-127.9 59 -132.2 48.7 -138.6 37.1C-145 25.6 -153.5 12.8 -162 0L0 0Z" fill="#cb4085"></path></g><g transform="translate(0, 1080)"><path d="M0 -648C54.5 -626 108.9 -604 155.3 -579.6C201.7 -555.1 239.9 -528.3 297 -514.4C354.1 -500.6 430 -499.8 458.2 -458.2C486.4 -416.6 467 -334.3 485.8 -280.5C504.6 -226.7 561.6 -201.4 595 -159.4C628.4 -117.4 638.2 -58.7 648 0L0 0Z" fill="#fae1ea"></path><path d="M0 -486C40.8 -469.5 81.7 -453 116.5 -434.7C151.2 -416.3 179.9 -396.2 222.7 -385.8C265.6 -375.4 322.5 -374.8 343.7 -343.7C364.8 -312.5 350.3 -250.7 364.4 -210.4C378.5 -170 421.2 -151.1 446.3 -119.6C471.3 -88.1 478.7 -44 486 0L0 0Z" fill="#eba4c0"></path><path d="M0 -324C27.2 -313 54.5 -302 77.6 -289.8C100.8 -277.6 120 -264.1 148.5 -257.2C177 -250.3 215 -249.9 229.1 -229.1C243.2 -208.3 233.5 -167.2 242.9 -140.3C252.3 -113.3 280.8 -100.7 297.5 -79.7C314.2 -58.7 319.1 -29.4 324 0L0 0Z" fill="#d76598"></path><path d="M0 -162C13.6 -156.5 27.2 -151 38.8 -144.9C50.4 -138.8 60 -132.1 74.2 -128.6C88.5 -125.1 107.5 -124.9 114.6 -114.6C121.6 -104.2 116.8 -83.6 121.5 -70.1C126.2 -56.7 140.4 -50.4 148.8 -39.9C157.1 -29.4 159.6 -14.7 162 0L0 0Z" fill="#cb4085"></path></g></svg>